<svg xmlns="http://www.w3.org/2000/svg" viewBox="0 0 1024 1024" width="1024" height="1024">
<defs><linearGradient id="seb-pl" x1="0.2" y1="0" x2="0.8" y2="1"><stop offset="0" stop-color="#3a3e4a"/><stop offset="1" stop-color="#1a1c22"/></linearGradient><radialGradient id="seb-plh" cx="0.26" cy="0.12" r="0.8"><stop offset="0" stop-color="#fff" stop-opacity="0.2"/><stop offset="0.55" stop-color="#fff" stop-opacity="0.05"/><stop offset="1" stop-color="#fff" stop-opacity="0"/></radialGradient><linearGradient id="seb-rim" x1="0" y1="0" x2="0" y2="1"><stop offset="0" stop-color="#fff" stop-opacity="0.42"/><stop offset="0.1" stop-color="#fff" stop-opacity="0"/><stop offset="0.86" stop-color="#030406" stop-opacity="0"/><stop offset="1" stop-color="#030406" stop-opacity="0.35"/></linearGradient><clipPath id="seb-clip"><rect x="82" y="82" width="860" height="860" rx="202"/></clipPath><filter id="seb-amb" x="-50%" y="-50%" width="200%" height="200%" color-interpolation-filters="sRGB"><feGaussianBlur stdDeviation="56"/></filter><filter id="seb-cs" x="-50%" y="-50%" width="200%" height="200%" color-interpolation-filters="sRGB"><feGaussianBlur stdDeviation="8"/></filter><filter id="seb-glow" x="-50%" y="-50%" width="200%" height="200%" color-interpolation-filters="sRGB"><feGaussianBlur stdDeviation="6"/></filter><linearGradient id="seb-coral" x1="0" y1="0" x2="0" y2="1"><stop offset="0" stop-color="#ff9272"/><stop offset="1" stop-color="#f2603f"/></linearGradient><linearGradient id="seb-corals" x1="0" y1="0" x2="0" y2="1"><stop offset="0" stop-color="#b53a24"/><stop offset="1" stop-color="#b53a24"/></linearGradient><linearGradient id="seb-amber" x1="0" y1="0" x2="0" y2="1"><stop offset="0" stop-color="#ffd363"/><stop offset="1" stop-color="#f5a623"/></linearGradient><linearGradient id="seb-ambers" x1="0" y1="0" x2="0" y2="1"><stop offset="0" stop-color="#b67a0c"/><stop offset="1" stop-color="#b67a0c"/></linearGradient><linearGradient id="seb-mint" x1="0" y1="0" x2="0" y2="1"><stop offset="0" stop-color="#63ebb3"/><stop offset="1" stop-color="#22c084"/></linearGradient><linearGradient id="seb-mints" x1="0" y1="0" x2="0" y2="1"><stop offset="0" stop-color="#118a5a"/><stop offset="1" stop-color="#118a5a"/></linearGradient><linearGradient id="seb-violet" x1="0" y1="0" x2="0" y2="1"><stop offset="0" stop-color="#a48bff"/><stop offset="1" stop-color="#6f4ee6"/></linearGradient><linearGradient id="seb-violets" x1="0" y1="0" x2="0" y2="1"><stop offset="0" stop-color="#4a2fae"/><stop offset="1" stop-color="#4a2fae"/></linearGradient></defs>
<g id="plate"><rect x="82" y="82" width="860" height="860" rx="202" fill="url(#seb-pl)"/><rect x="82" y="82" width="860" height="860" rx="202" fill="url(#seb-plh)"/></g><g id="object-main"><rect x="250" y="310" width="316" height="86" rx="22" fill="#000" opacity="0.45" filter="url(#seb-cs)"/><rect x="244" y="303" width="316" height="86" rx="22" fill="url(#seb-corals)"/><rect x="244" y="296" width="316" height="86" rx="22" fill="url(#seb-coral)"/><rect x="258" y="300" width="288" height="4" rx="2" fill="#fff" opacity="0.5"/><g fill="#fff" opacity="0.6"><rect x="266" y="334.0" width="8" height="10.0" rx="4"/><rect x="283" y="318.0" width="8" height="42.0" rx="4"/><rect x="300" y="315.3" width="8" height="47.3" rx="4"/><rect x="317" y="325.3" width="8" height="27.3" rx="4"/><rect x="334" y="333.0" width="8" height="12.1" rx="4"/><rect x="351" y="333.6" width="8" height="10.8" rx="4"/><rect x="368" y="327.6" width="8" height="22.8" rx="4"/><rect x="385" y="327.3" width="8" height="23.4" rx="4"/><rect x="402" y="329.0" width="8" height="19.9" rx="4"/><rect x="419" y="314.8" width="8" height="48.4" rx="4"/><rect x="436" y="312.4" width="8" height="53.2" rx="4"/><rect x="453" y="325.3" width="8" height="27.5" rx="4"/><rect x="470" y="326.2" width="8" height="25.5" rx="4"/><rect x="487" y="320.3" width="8" height="37.4" rx="4"/><rect x="504" y="326.6" width="8" height="24.8" rx="4"/><rect x="521" y="333.6" width="8" height="10.8" rx="4"/><rect x="538" y="331.0" width="8" height="15.9" rx="4"/></g><rect x="394" y="418" width="392" height="86" rx="22" fill="#000" opacity="0.45" filter="url(#seb-cs)"/><rect x="388" y="411" width="392" height="86" rx="22" fill="url(#seb-ambers)"/><rect x="388" y="404" width="392" height="86" rx="22" fill="url(#seb-amber)"/><rect x="402" y="408" width="364" height="4" rx="2" fill="#fff" opacity="0.5"/><g fill="#fff" opacity="0.6"><rect x="410" y="433.9" width="8" height="26.1" rx="4"/><rect x="427" y="427.0" width="8" height="40.0" rx="4"/><rect x="444" y="432.4" width="8" height="29.2" rx="4"/><rect x="461" y="435.0" width="8" height="24.1" rx="4"/><rect x="478" y="421.2" width="8" height="51.6" rx="4"/><rect x="495" y="422.5" width="8" height="49.1" rx="4"/><rect x="512" y="435.8" width="8" height="22.3" rx="4"/><rect x="529" y="436.8" width="8" height="20.5" rx="4"/><rect x="546" y="436.9" width="8" height="20.1" rx="4"/><rect x="563" y="440.5" width="8" height="13.1" rx="4"/><rect x="580" y="440.1" width="8" height="13.9" rx="4"/><rect x="597" y="433.7" width="8" height="26.6" rx="4"/><rect x="614" y="422.8" width="8" height="48.4" rx="4"/><rect x="631" y="424.5" width="8" height="45.1" rx="4"/><rect x="648" y="440.0" width="8" height="14.0" rx="4"/><rect x="665" y="427.6" width="8" height="38.8" rx="4"/><rect x="682" y="424.1" width="8" height="45.9" rx="4"/><rect x="699" y="433.2" width="8" height="27.6" rx="4"/><rect x="716" y="441.7" width="8" height="10.6" rx="4"/><rect x="733" y="441.4" width="8" height="11.3" rx="4"/><rect x="750" y="434.3" width="8" height="25.5" rx="4"/></g><rect x="250" y="526" width="224" height="86" rx="22" fill="#000" opacity="0.45" filter="url(#seb-cs)"/><rect x="244" y="519" width="224" height="86" rx="22" fill="url(#seb-mints)"/><rect x="244" y="512" width="224" height="86" rx="22" fill="url(#seb-mint)"/><rect x="258" y="516" width="196" height="4" rx="2" fill="#fff" opacity="0.5"/><g fill="#fff" opacity="0.6"><rect x="266" y="536.3" width="8" height="37.3" rx="4"/><rect x="283" y="547.2" width="8" height="15.7" rx="4"/><rect x="300" y="549.0" width="8" height="12.0" rx="4"/><rect x="317" y="545.2" width="8" height="19.6" rx="4"/><rect x="334" y="540.2" width="8" height="29.5" rx="4"/><rect x="351" y="546.9" width="8" height="16.2" rx="4"/><rect x="368" y="537.5" width="8" height="34.9" rx="4"/><rect x="385" y="527.3" width="8" height="55.4" rx="4"/><rect x="402" y="532.8" width="8" height="44.3" rx="4"/><rect x="419" y="549.1" width="8" height="11.8" rx="4"/><rect x="436" y="539.0" width="8" height="32.0" rx="4"/></g><rect x="498" y="526" width="208" height="86" rx="22" fill="#000" opacity="0.45" filter="url(#seb-cs)"/><rect x="492" y="519" width="208" height="86" rx="22" fill="url(#seb-mints)"/><rect x="492" y="512" width="208" height="86" rx="22" fill="url(#seb-mint)"/><rect x="506" y="516" width="180" height="4" rx="2" fill="#fff" opacity="0.5"/><g fill="#fff" opacity="0.6"><rect x="514" y="546.9" width="8" height="16.2" rx="4"/><rect x="531" y="535.6" width="8" height="38.9" rx="4"/><rect x="548" y="528.3" width="8" height="53.3" rx="4"/><rect x="565" y="536.5" width="8" height="36.9" rx="4"/><rect x="582" y="550.0" width="8" height="10.1" rx="4"/><rect x="599" y="545.0" width="8" height="20.0" rx="4"/><rect x="616" y="549.9" width="8" height="10.3" rx="4"/><rect x="633" y="545.5" width="8" height="19.0" rx="4"/><rect x="650" y="548.2" width="8" height="13.6" rx="4"/><rect x="667" y="534.9" width="8" height="40.2" rx="4"/></g><rect x="328" y="634" width="324" height="86" rx="22" fill="#000" opacity="0.45" filter="url(#seb-cs)"/><rect x="322" y="627" width="324" height="86" rx="22" fill="url(#seb-violets)"/><rect x="322" y="620" width="324" height="86" rx="22" fill="url(#seb-violet)"/><rect x="336" y="624" width="296" height="4" rx="2" fill="#fff" opacity="0.5"/><g fill="#fff" opacity="0.6"><rect x="344" y="654.9" width="8" height="16.2" rx="4"/><rect x="361" y="643.6" width="8" height="38.9" rx="4"/><rect x="378" y="636.3" width="8" height="53.3" rx="4"/><rect x="395" y="644.5" width="8" height="36.9" rx="4"/><rect x="412" y="658.0" width="8" height="10.1" rx="4"/><rect x="429" y="653.0" width="8" height="20.0" rx="4"/><rect x="446" y="657.9" width="8" height="10.3" rx="4"/><rect x="463" y="653.5" width="8" height="19.0" rx="4"/><rect x="480" y="656.2" width="8" height="13.6" rx="4"/><rect x="497" y="642.9" width="8" height="40.2" rx="4"/><rect x="514" y="636.7" width="8" height="52.7" rx="4"/><rect x="531" y="646.1" width="8" height="33.9" rx="4"/><rect x="548" y="652.1" width="8" height="21.9" rx="4"/><rect x="565" y="641.2" width="8" height="43.6" rx="4"/><rect x="582" y="644.8" width="8" height="36.4" rx="4"/><rect x="599" y="654.9" width="8" height="16.2" rx="4"/><rect x="616" y="657.7" width="8" height="10.7" rx="4"/></g><g id="playhead"><rect x="600" y="262" width="8" height="486" rx="4" fill="#fff" opacity="0.5" filter="url(#seb-glow)"/><rect x="601" y="262" width="6" height="486" rx="3" fill="#fff"/><path d="M580 246H628V262L604 284L580 262Z" fill="#fff" stroke="#fff" stroke-width="8" stroke-linejoin="round"/></g></g><g id="plate-rim" clip-path="url(#seb-clip)"><rect x="82" y="82" width="860" height="860" rx="202" fill="none" stroke="url(#seb-rim)" stroke-width="8"/></g>
</svg>
