<svg xmlns="http://www.w3.org/2000/svg" width="256" height="256" viewBox="0 0 256 256"><title>Display — Graphite</title><defs><radialGradient id="light" cx=".28" cy=".23" r=".86"><stop stop-color="#fff" stop-opacity=".23"/><stop offset="1" stop-color="#fff" stop-opacity="0"/></radialGradient><linearGradient id="rim" x1="0" y1="0" x2="0" y2="1"><stop stop-color="#fff" stop-opacity=".65"/><stop offset=".45" stop-color="#fff" stop-opacity=".1"/><stop offset="1" stop-color="#153b62" stop-opacity=".3"/></linearGradient><radialGradient id="shadow"><stop stop-color="#1b3044" stop-opacity=".25"/><stop offset="1" stop-color="#1b3044" stop-opacity="0"/></radialGradient><linearGradient id="body" x1="0" y1="0" x2=".35" y2="1"><stop stop-color="#596670"/><stop offset=".48" stop-color="#303e48"/><stop offset="1" stop-color="#1a2731"/></linearGradient><linearGradient id="metal" x1="0" y1="0" x2="1" y2=".35"><stop stop-color="#a2b3bb"/><stop offset=".3" stop-color="#e6edef"/><stop offset="1" stop-color="#96aab5"/></linearGradient><linearGradient id="paper" x1="0" y1="0" x2=".35" y2="1"><stop stop-color="#f4f6f7"/><stop offset="1" stop-color="#d6e2e6"/></linearGradient><linearGradient id="screen" x1="0" y1="0" x2=".35" y2="1"><stop stop-color="#a4d4e9"/><stop offset=".48" stop-color="#62a9cd"/><stop offset="1" stop-color="#357ca5"/></linearGradient></defs><ellipse cx="128" cy="214" rx="49" ry="5" fill="url(#shadow)"/><path d="M117 166 H139 L145 204 H111Z" fill="url(#body)" stroke="#718894" stroke-width=".7"/><path d="M117 166 H139 L145 204 H111Z" fill="url(#light)" stroke="url(#rim)" stroke-width="1.2"/><rect x="83" y="204" width="90" height="7" rx="3" fill="url(#metal)" stroke="#718894" stroke-opacity=".6" stroke-width=".7"/><path d="M29 43 H227 Q235 43 235 51 V172 Q235 180 227 180 H29 Q21 180 21 172 V51 Q21 43 29 43Z" fill="url(#body)" stroke="#718894" stroke-width=".7"/><path d="M29 43 H227 Q235 43 235 51 V172 Q235 180 227 180 H29 Q21 180 21 172 V51 Q21 43 29 43Z" fill="url(#light)" stroke="url(#rim)" stroke-width="1.2"/><rect x="28" y="50" width="200" height="116" rx="3" fill="url(#screen)" stroke="#718894" stroke-opacity=".6" stroke-width=".7"/><rect x="28" y="50" width="200" height="116" rx="3" fill="url(#light)"/><circle cx="128" cy="173" r="1.4" fill="#c9dce5" opacity=".6"/></svg>