<svg xmlns="http://www.w3.org/2000/svg" viewBox="0 0 1024 1024" width="1024" height="1024">
<defs><linearGradient id="mm2a-pl" x1="0.2" y1="0" x2="0.8" y2="1"><stop offset="0" stop-color="#43464f"/><stop offset="1" stop-color="#1b1d22"/></linearGradient><radialGradient id="mm2a-plh" cx="0.26" cy="0.12" r="0.8"><stop offset="0" stop-color="#fff" stop-opacity="0.2"/><stop offset="0.55" stop-color="#fff" stop-opacity="0.05"/><stop offset="1" stop-color="#fff" stop-opacity="0"/></radialGradient><linearGradient id="mm2a-rim" x1="0" y1="0" x2="0" y2="1"><stop offset="0" stop-color="#fff" stop-opacity="0.42"/><stop offset="0.1" stop-color="#fff" stop-opacity="0"/><stop offset="0.86" stop-color="#040507" stop-opacity="0"/><stop offset="1" stop-color="#040507" stop-opacity="0.35"/></linearGradient><clipPath id="mm2a-clip"><rect x="82" y="82" width="860" height="860" rx="202"/></clipPath><filter id="mm2a-amb" x="-50%" y="-50%" width="200%" height="200%" color-interpolation-filters="sRGB"><feGaussianBlur stdDeviation="56"/></filter><filter id="mm2a-glow" x="-50%" y="-50%" width="200%" height="200%" color-interpolation-filters="sRGB"><feGaussianBlur stdDeviation="26"/></filter><filter id="mm2a-sh" x="-50%" y="-50%" width="200%" height="200%" color-interpolation-filters="sRGB"><feGaussianBlur stdDeviation="10"/></filter><linearGradient id="mm2a-wave" x1="0" y1="0" x2="1" y2="0"><stop offset="0" stop-color="#ffb35c"/><stop offset="0.5" stop-color="#ff4f6d"/><stop offset="1" stop-color="#b44dff"/></linearGradient><linearGradient id="mm2a-lit" x1="0" y1="0" x2="0" y2="1"><stop offset="0" stop-color="#fff" stop-opacity="0.45"/><stop offset="0.5" stop-color="#fff" stop-opacity="0"/><stop offset="1" stop-color="#fff" stop-opacity="0"/></linearGradient></defs><g id="dock-size" transform="translate(512 512) scale(1.12) translate(-512 -512)">
<g id="plate"><rect x="82" y="82" width="860" height="860" rx="202" fill="url(#mm2a-pl)"/><rect x="82" y="82" width="860" height="860" rx="202" fill="url(#mm2a-plh)"/></g><g id="ambient-shadow" clip-path="url(#mm2a-clip)"><ellipse cx="512" cy="560" rx="320" ry="240" fill="#040507" opacity="0.4" filter="url(#mm2a-amb)"/></g><path d="M188 459.6H188A11 11 0 0 1 199 470.6V553.4A11 11 0 0 1 188 564.4H188A11 11 0 0 1 177 553.4V470.6A11 11 0 0 1 188 459.6ZM224 419.83379178363754H224A11 11 0 0 1 235 430.83379178363754V593.1662082163624A11 11 0 0 1 224 604.1662082163624H224A11 11 0 0 1 213 593.1662082163624V430.83379178363754A11 11 0 0 1 224 419.83379178363754ZM260 397.7196097401616H260A11 11 0 0 1 271 408.7196097401616V615.2803902598383A11 11 0 0 1 260 626.2803902598383H260A11 11 0 0 1 249 615.2803902598383V408.7196097401616A11 11 0 0 1 260 397.7196097401616ZM296 395.44546174941496H296A11 11 0 0 1 307 406.44546174941496V617.5545382505851A11 11 0 0 1 296 628.5545382505851H296A11 11 0 0 1 285 617.5545382505851V406.44546174941496A11 11 0 0 1 296 395.44546174941496ZM332 317.22160818085996H332A11 11 0 0 1 343 328.22160818085996V695.7783918191401A11 11 0 0 1 332 706.7783918191401H332A11 11 0 0 1 321 695.7783918191401V328.22160818085996A11 11 0 0 1 332 317.22160818085996ZM368 299.3148971853077H368A11 11 0 0 1 379 310.3148971853077V713.6851028146923A11 11 0 0 1 368 724.6851028146923H368A11 11 0 0 1 357 713.6851028146923V310.3148971853077A11 11 0 0 1 368 299.3148971853077ZM404 322.24431335480267H404A11 11 0 0 1 415 333.24431335480267V690.7556866451973A11 11 0 0 1 404 701.7556866451973H404A11 11 0 0 1 393 690.7556866451973V333.24431335480267A11 11 0 0 1 404 322.24431335480267ZM440 321.19058359101166H440A11 11 0 0 1 451 332.19058359101166V691.8094164089885A11 11 0 0 1 440 702.8094164089885H440A11 11 0 0 1 429 691.8094164089885V332.19058359101166A11 11 0 0 1 440 321.19058359101166ZM476 346.05346798828424H476A11 11 0 0 1 487 357.05346798828424V666.9465320117158A11 11 0 0 1 476 677.9465320117158H476A11 11 0 0 1 465 666.9465320117158V357.05346798828424A11 11 0 0 1 476 346.05346798828424ZM512 259.99984791522917H512A11 11 0 0 1 523 270.99984791522917V753.0001520847709A11 11 0 0 1 512 764.0001520847709H512A11 11 0 0 1 501 753.0001520847709V270.99984791522917A11 11 0 0 1 512 259.99984791522917ZM548 256.97508883095986H548A11 11 0 0 1 559 267.97508883095986V756.0249111690403A11 11 0 0 1 548 767.0249111690403H548A11 11 0 0 1 537 756.0249111690403V267.97508883095986A11 11 0 0 1 548 256.97508883095986ZM584 320.0421840423297H584A11 11 0 0 1 595 331.0421840423297V692.9578159576704A11 11 0 0 1 584 703.9578159576704H584A11 11 0 0 1 573 692.9578159576704V331.0421840423297A11 11 0 0 1 584 320.0421840423297ZM620 330.61631801050373H620A11 11 0 0 1 631 341.61631801050373V682.3836819894964A11 11 0 0 1 620 693.3836819894964H620A11 11 0 0 1 609 682.3836819894964V341.61631801050373A11 11 0 0 1 620 330.61631801050373ZM656 364.01591341424285H656A11 11 0 0 1 667 375.01591341424285V648.9840865857572A11 11 0 0 1 656 659.9840865857572H656A11 11 0 0 1 645 648.9840865857572V375.01591341424285A11 11 0 0 1 656 364.01591341424285ZM692 322.0702262551039H692A11 11 0 0 1 703 333.0702262551039V690.929773744896A11 11 0 0 1 692 701.929773744896H692A11 11 0 0 1 681 690.929773744896V333.0702262551039A11 11 0 0 1 692 322.0702262551039ZM728 338.2383437819261H728A11 11 0 0 1 739 349.2383437819261V674.7616562180738A11 11 0 0 1 728 685.7616562180738H728A11 11 0 0 1 717 674.7616562180738V349.2383437819261A11 11 0 0 1 728 338.2383437819261ZM764 400.6326664552229H764A11 11 0 0 1 775 411.6326664552229V612.367333544777A11 11 0 0 1 764 623.367333544777H764A11 11 0 0 1 753 612.367333544777V411.6326664552229A11 11 0 0 1 764 400.6326664552229ZM800 424.17703620033404H800A11 11 0 0 1 811 435.17703620033404V588.822963799666A11 11 0 0 1 800 599.822963799666H800A11 11 0 0 1 789 588.822963799666V435.17703620033404A11 11 0 0 1 800 424.17703620033404ZM836 459.5999999999773H836A11 11 0 0 1 847 470.5999999999773V553.4000000000227A11 11 0 0 1 836 564.4000000000227H836A11 11 0 0 1 825 553.4000000000227V470.5999999999773A11 11 0 0 1 836 459.5999999999773Z" fill="url(#mm2a-wave)" opacity="0.55" filter="url(#mm2a-glow)"/><path d="M188 459.6H188A11 11 0 0 1 199 470.6V553.4A11 11 0 0 1 188 564.4H188A11 11 0 0 1 177 553.4V470.6A11 11 0 0 1 188 459.6ZM224 419.83379178363754H224A11 11 0 0 1 235 430.83379178363754V593.1662082163624A11 11 0 0 1 224 604.1662082163624H224A11 11 0 0 1 213 593.1662082163624V430.83379178363754A11 11 0 0 1 224 419.83379178363754ZM260 397.7196097401616H260A11 11 0 0 1 271 408.7196097401616V615.2803902598383A11 11 0 0 1 260 626.2803902598383H260A11 11 0 0 1 249 615.2803902598383V408.7196097401616A11 11 0 0 1 260 397.7196097401616ZM296 395.44546174941496H296A11 11 0 0 1 307 406.44546174941496V617.5545382505851A11 11 0 0 1 296 628.5545382505851H296A11 11 0 0 1 285 617.5545382505851V406.44546174941496A11 11 0 0 1 296 395.44546174941496ZM332 317.22160818085996H332A11 11 0 0 1 343 328.22160818085996V695.7783918191401A11 11 0 0 1 332 706.7783918191401H332A11 11 0 0 1 321 695.7783918191401V328.22160818085996A11 11 0 0 1 332 317.22160818085996ZM368 299.3148971853077H368A11 11 0 0 1 379 310.3148971853077V713.6851028146923A11 11 0 0 1 368 724.6851028146923H368A11 11 0 0 1 357 713.6851028146923V310.3148971853077A11 11 0 0 1 368 299.3148971853077ZM404 322.24431335480267H404A11 11 0 0 1 415 333.24431335480267V690.7556866451973A11 11 0 0 1 404 701.7556866451973H404A11 11 0 0 1 393 690.7556866451973V333.24431335480267A11 11 0 0 1 404 322.24431335480267ZM440 321.19058359101166H440A11 11 0 0 1 451 332.19058359101166V691.8094164089885A11 11 0 0 1 440 702.8094164089885H440A11 11 0 0 1 429 691.8094164089885V332.19058359101166A11 11 0 0 1 440 321.19058359101166ZM476 346.05346798828424H476A11 11 0 0 1 487 357.05346798828424V666.9465320117158A11 11 0 0 1 476 677.9465320117158H476A11 11 0 0 1 465 666.9465320117158V357.05346798828424A11 11 0 0 1 476 346.05346798828424ZM512 259.99984791522917H512A11 11 0 0 1 523 270.99984791522917V753.0001520847709A11 11 0 0 1 512 764.0001520847709H512A11 11 0 0 1 501 753.0001520847709V270.99984791522917A11 11 0 0 1 512 259.99984791522917ZM548 256.97508883095986H548A11 11 0 0 1 559 267.97508883095986V756.0249111690403A11 11 0 0 1 548 767.0249111690403H548A11 11 0 0 1 537 756.0249111690403V267.97508883095986A11 11 0 0 1 548 256.97508883095986ZM584 320.0421840423297H584A11 11 0 0 1 595 331.0421840423297V692.9578159576704A11 11 0 0 1 584 703.9578159576704H584A11 11 0 0 1 573 692.9578159576704V331.0421840423297A11 11 0 0 1 584 320.0421840423297ZM620 330.61631801050373H620A11 11 0 0 1 631 341.61631801050373V682.3836819894964A11 11 0 0 1 620 693.3836819894964H620A11 11 0 0 1 609 682.3836819894964V341.61631801050373A11 11 0 0 1 620 330.61631801050373ZM656 364.01591341424285H656A11 11 0 0 1 667 375.01591341424285V648.9840865857572A11 11 0 0 1 656 659.9840865857572H656A11 11 0 0 1 645 648.9840865857572V375.01591341424285A11 11 0 0 1 656 364.01591341424285ZM692 322.0702262551039H692A11 11 0 0 1 703 333.0702262551039V690.929773744896A11 11 0 0 1 692 701.929773744896H692A11 11 0 0 1 681 690.929773744896V333.0702262551039A11 11 0 0 1 692 322.0702262551039ZM728 338.2383437819261H728A11 11 0 0 1 739 349.2383437819261V674.7616562180738A11 11 0 0 1 728 685.7616562180738H728A11 11 0 0 1 717 674.7616562180738V349.2383437819261A11 11 0 0 1 728 338.2383437819261ZM764 400.6326664552229H764A11 11 0 0 1 775 411.6326664552229V612.367333544777A11 11 0 0 1 764 623.367333544777H764A11 11 0 0 1 753 612.367333544777V411.6326664552229A11 11 0 0 1 764 400.6326664552229ZM800 424.17703620033404H800A11 11 0 0 1 811 435.17703620033404V588.822963799666A11 11 0 0 1 800 599.822963799666H800A11 11 0 0 1 789 588.822963799666V435.17703620033404A11 11 0 0 1 800 424.17703620033404ZM836 459.5999999999773H836A11 11 0 0 1 847 470.5999999999773V553.4000000000227A11 11 0 0 1 836 564.4000000000227H836A11 11 0 0 1 825 553.4000000000227V470.5999999999773A11 11 0 0 1 836 459.5999999999773Z" fill="#000" opacity="0.35" filter="url(#mm2a-sh)" transform="translate(4 12)"/><path d="M188 459.6H188A11 11 0 0 1 199 470.6V553.4A11 11 0 0 1 188 564.4H188A11 11 0 0 1 177 553.4V470.6A11 11 0 0 1 188 459.6ZM224 419.83379178363754H224A11 11 0 0 1 235 430.83379178363754V593.1662082163624A11 11 0 0 1 224 604.1662082163624H224A11 11 0 0 1 213 593.1662082163624V430.83379178363754A11 11 0 0 1 224 419.83379178363754ZM260 397.7196097401616H260A11 11 0 0 1 271 408.7196097401616V615.2803902598383A11 11 0 0 1 260 626.2803902598383H260A11 11 0 0 1 249 615.2803902598383V408.7196097401616A11 11 0 0 1 260 397.7196097401616ZM296 395.44546174941496H296A11 11 0 0 1 307 406.44546174941496V617.5545382505851A11 11 0 0 1 296 628.5545382505851H296A11 11 0 0 1 285 617.5545382505851V406.44546174941496A11 11 0 0 1 296 395.44546174941496ZM332 317.22160818085996H332A11 11 0 0 1 343 328.22160818085996V695.7783918191401A11 11 0 0 1 332 706.7783918191401H332A11 11 0 0 1 321 695.7783918191401V328.22160818085996A11 11 0 0 1 332 317.22160818085996ZM368 299.3148971853077H368A11 11 0 0 1 379 310.3148971853077V713.6851028146923A11 11 0 0 1 368 724.6851028146923H368A11 11 0 0 1 357 713.6851028146923V310.3148971853077A11 11 0 0 1 368 299.3148971853077ZM404 322.24431335480267H404A11 11 0 0 1 415 333.24431335480267V690.7556866451973A11 11 0 0 1 404 701.7556866451973H404A11 11 0 0 1 393 690.7556866451973V333.24431335480267A11 11 0 0 1 404 322.24431335480267ZM440 321.19058359101166H440A11 11 0 0 1 451 332.19058359101166V691.8094164089885A11 11 0 0 1 440 702.8094164089885H440A11 11 0 0 1 429 691.8094164089885V332.19058359101166A11 11 0 0 1 440 321.19058359101166ZM476 346.05346798828424H476A11 11 0 0 1 487 357.05346798828424V666.9465320117158A11 11 0 0 1 476 677.9465320117158H476A11 11 0 0 1 465 666.9465320117158V357.05346798828424A11 11 0 0 1 476 346.05346798828424ZM512 259.99984791522917H512A11 11 0 0 1 523 270.99984791522917V753.0001520847709A11 11 0 0 1 512 764.0001520847709H512A11 11 0 0 1 501 753.0001520847709V270.99984791522917A11 11 0 0 1 512 259.99984791522917ZM548 256.97508883095986H548A11 11 0 0 1 559 267.97508883095986V756.0249111690403A11 11 0 0 1 548 767.0249111690403H548A11 11 0 0 1 537 756.0249111690403V267.97508883095986A11 11 0 0 1 548 256.97508883095986ZM584 320.0421840423297H584A11 11 0 0 1 595 331.0421840423297V692.9578159576704A11 11 0 0 1 584 703.9578159576704H584A11 11 0 0 1 573 692.9578159576704V331.0421840423297A11 11 0 0 1 584 320.0421840423297ZM620 330.61631801050373H620A11 11 0 0 1 631 341.61631801050373V682.3836819894964A11 11 0 0 1 620 693.3836819894964H620A11 11 0 0 1 609 682.3836819894964V341.61631801050373A11 11 0 0 1 620 330.61631801050373ZM656 364.01591341424285H656A11 11 0 0 1 667 375.01591341424285V648.9840865857572A11 11 0 0 1 656 659.9840865857572H656A11 11 0 0 1 645 648.9840865857572V375.01591341424285A11 11 0 0 1 656 364.01591341424285ZM692 322.0702262551039H692A11 11 0 0 1 703 333.0702262551039V690.929773744896A11 11 0 0 1 692 701.929773744896H692A11 11 0 0 1 681 690.929773744896V333.0702262551039A11 11 0 0 1 692 322.0702262551039ZM728 338.2383437819261H728A11 11 0 0 1 739 349.2383437819261V674.7616562180738A11 11 0 0 1 728 685.7616562180738H728A11 11 0 0 1 717 674.7616562180738V349.2383437819261A11 11 0 0 1 728 338.2383437819261ZM764 400.6326664552229H764A11 11 0 0 1 775 411.6326664552229V612.367333544777A11 11 0 0 1 764 623.367333544777H764A11 11 0 0 1 753 612.367333544777V411.6326664552229A11 11 0 0 1 764 400.6326664552229ZM800 424.17703620033404H800A11 11 0 0 1 811 435.17703620033404V588.822963799666A11 11 0 0 1 800 599.822963799666H800A11 11 0 0 1 789 588.822963799666V435.17703620033404A11 11 0 0 1 800 424.17703620033404ZM836 459.5999999999773H836A11 11 0 0 1 847 470.5999999999773V553.4000000000227A11 11 0 0 1 836 564.4000000000227H836A11 11 0 0 1 825 553.4000000000227V470.5999999999773A11 11 0 0 1 836 459.5999999999773Z" fill="url(#mm2a-wave)"/><path d="M188 459.6H188A11 11 0 0 1 199 470.6V553.4A11 11 0 0 1 188 564.4H188A11 11 0 0 1 177 553.4V470.6A11 11 0 0 1 188 459.6ZM224 419.83379178363754H224A11 11 0 0 1 235 430.83379178363754V593.1662082163624A11 11 0 0 1 224 604.1662082163624H224A11 11 0 0 1 213 593.1662082163624V430.83379178363754A11 11 0 0 1 224 419.83379178363754ZM260 397.7196097401616H260A11 11 0 0 1 271 408.7196097401616V615.2803902598383A11 11 0 0 1 260 626.2803902598383H260A11 11 0 0 1 249 615.2803902598383V408.7196097401616A11 11 0 0 1 260 397.7196097401616ZM296 395.44546174941496H296A11 11 0 0 1 307 406.44546174941496V617.5545382505851A11 11 0 0 1 296 628.5545382505851H296A11 11 0 0 1 285 617.5545382505851V406.44546174941496A11 11 0 0 1 296 395.44546174941496ZM332 317.22160818085996H332A11 11 0 0 1 343 328.22160818085996V695.7783918191401A11 11 0 0 1 332 706.7783918191401H332A11 11 0 0 1 321 695.7783918191401V328.22160818085996A11 11 0 0 1 332 317.22160818085996ZM368 299.3148971853077H368A11 11 0 0 1 379 310.3148971853077V713.6851028146923A11 11 0 0 1 368 724.6851028146923H368A11 11 0 0 1 357 713.6851028146923V310.3148971853077A11 11 0 0 1 368 299.3148971853077ZM404 322.24431335480267H404A11 11 0 0 1 415 333.24431335480267V690.7556866451973A11 11 0 0 1 404 701.7556866451973H404A11 11 0 0 1 393 690.7556866451973V333.24431335480267A11 11 0 0 1 404 322.24431335480267ZM440 321.19058359101166H440A11 11 0 0 1 451 332.19058359101166V691.8094164089885A11 11 0 0 1 440 702.8094164089885H440A11 11 0 0 1 429 691.8094164089885V332.19058359101166A11 11 0 0 1 440 321.19058359101166ZM476 346.05346798828424H476A11 11 0 0 1 487 357.05346798828424V666.9465320117158A11 11 0 0 1 476 677.9465320117158H476A11 11 0 0 1 465 666.9465320117158V357.05346798828424A11 11 0 0 1 476 346.05346798828424ZM512 259.99984791522917H512A11 11 0 0 1 523 270.99984791522917V753.0001520847709A11 11 0 0 1 512 764.0001520847709H512A11 11 0 0 1 501 753.0001520847709V270.99984791522917A11 11 0 0 1 512 259.99984791522917ZM548 256.97508883095986H548A11 11 0 0 1 559 267.97508883095986V756.0249111690403A11 11 0 0 1 548 767.0249111690403H548A11 11 0 0 1 537 756.0249111690403V267.97508883095986A11 11 0 0 1 548 256.97508883095986ZM584 320.0421840423297H584A11 11 0 0 1 595 331.0421840423297V692.9578159576704A11 11 0 0 1 584 703.9578159576704H584A11 11 0 0 1 573 692.9578159576704V331.0421840423297A11 11 0 0 1 584 320.0421840423297ZM620 330.61631801050373H620A11 11 0 0 1 631 341.61631801050373V682.3836819894964A11 11 0 0 1 620 693.3836819894964H620A11 11 0 0 1 609 682.3836819894964V341.61631801050373A11 11 0 0 1 620 330.61631801050373ZM656 364.01591341424285H656A11 11 0 0 1 667 375.01591341424285V648.9840865857572A11 11 0 0 1 656 659.9840865857572H656A11 11 0 0 1 645 648.9840865857572V375.01591341424285A11 11 0 0 1 656 364.01591341424285ZM692 322.0702262551039H692A11 11 0 0 1 703 333.0702262551039V690.929773744896A11 11 0 0 1 692 701.929773744896H692A11 11 0 0 1 681 690.929773744896V333.0702262551039A11 11 0 0 1 692 322.0702262551039ZM728 338.2383437819261H728A11 11 0 0 1 739 349.2383437819261V674.7616562180738A11 11 0 0 1 728 685.7616562180738H728A11 11 0 0 1 717 674.7616562180738V349.2383437819261A11 11 0 0 1 728 338.2383437819261ZM764 400.6326664552229H764A11 11 0 0 1 775 411.6326664552229V612.367333544777A11 11 0 0 1 764 623.367333544777H764A11 11 0 0 1 753 612.367333544777V411.6326664552229A11 11 0 0 1 764 400.6326664552229ZM800 424.17703620033404H800A11 11 0 0 1 811 435.17703620033404V588.822963799666A11 11 0 0 1 800 599.822963799666H800A11 11 0 0 1 789 588.822963799666V435.17703620033404A11 11 0 0 1 800 424.17703620033404ZM836 459.5999999999773H836A11 11 0 0 1 847 470.5999999999773V553.4000000000227A11 11 0 0 1 836 564.4000000000227H836A11 11 0 0 1 825 553.4000000000227V470.5999999999773A11 11 0 0 1 836 459.5999999999773Z" fill="url(#mm2a-lit)"/>
</g></svg>
