<svg xmlns="http://www.w3.org/2000/svg" viewBox="0 0 1024 1024" width="1024" height="1024">
<defs><linearGradient id="dk4b-pl" x1="0.2" y1="0" x2="0.8" y2="1"><stop offset="0" stop-color="#ffc956"/><stop offset="1" stop-color="#f29a17"/></linearGradient><radialGradient id="dk4b-plh" cx="0.26" cy="0.12" r="0.8"><stop offset="0" stop-color="#fff" stop-opacity="0.2"/><stop offset="0.55" stop-color="#fff" stop-opacity="0.05"/><stop offset="1" stop-color="#fff" stop-opacity="0"/></radialGradient><linearGradient id="dk4b-rim" x1="0" y1="0" x2="0" y2="1"><stop offset="0" stop-color="#fff" stop-opacity="0.42"/><stop offset="0.1" stop-color="#fff" stop-opacity="0"/><stop offset="0.86" stop-color="#6b3a00" stop-opacity="0"/><stop offset="1" stop-color="#6b3a00" stop-opacity="0.35"/></linearGradient><clipPath id="dk4b-clip"><rect x="82" y="82" width="860" height="860" rx="202"/></clipPath><filter id="dk4b-amb" x="-50%" y="-50%" width="200%" height="200%" color-interpolation-filters="sRGB"><feGaussianBlur stdDeviation="56"/></filter><mask id="dk4b0-hl" maskUnits="userSpaceOnUse" x="0" y="0" width="1024" height="1024"><path d="M308 236H716A46 46 0 0 1 762 282V350A46 46 0 0 1 716 396H308A46 46 0 0 1 262 350V282A46 46 0 0 1 308 236Z" transform="" fill="#fff" stroke="#fff" stroke-width="2" stroke-linejoin="round"/><path d="M308 236H716A46 46 0 0 1 762 282V350A46 46 0 0 1 716 396H308A46 46 0 0 1 262 350V282A46 46 0 0 1 308 236Z" transform="translate(9 10.799999999999999) " fill="#000" stroke="#000" stroke-width="2" stroke-linejoin="round"/></mask><mask id="dk4b0-lo" maskUnits="userSpaceOnUse" x="0" y="0" width="1024" height="1024"><path d="M308 236H716A46 46 0 0 1 762 282V350A46 46 0 0 1 716 396H308A46 46 0 0 1 262 350V282A46 46 0 0 1 308 236Z" transform="" fill="#fff" stroke="#fff" stroke-width="2" stroke-linejoin="round"/><path d="M308 236H716A46 46 0 0 1 762 282V350A46 46 0 0 1 716 396H308A46 46 0 0 1 262 350V282A46 46 0 0 1 308 236Z" transform="translate(-9 -10.799999999999999) " fill="#000" stroke="#000" stroke-width="2" stroke-linejoin="round"/></mask><mask id="dk4b0-in" maskUnits="userSpaceOnUse" x="0" y="0" width="1024" height="1024"><path d="M308 236H716A46 46 0 0 1 762 282V350A46 46 0 0 1 716 396H308A46 46 0 0 1 262 350V282A46 46 0 0 1 308 236Z" transform="" fill="#fff" stroke="#fff" stroke-width="2" stroke-linejoin="round"/></mask><filter id="dk4b0-hsoft" x="-50%" y="-50%" width="200%" height="200%" color-interpolation-filters="sRGB"><feGaussianBlur stdDeviation="2.25"/></filter><mask id="dk4b1-hl" maskUnits="userSpaceOnUse" x="0" y="0" width="1024" height="1024"><path d="M308 432H716A46 46 0 0 1 762 478V546A46 46 0 0 1 716 592H308A46 46 0 0 1 262 546V478A46 46 0 0 1 308 432Z" transform="" fill="#fff" stroke="#fff" stroke-width="2" stroke-linejoin="round"/><path d="M308 432H716A46 46 0 0 1 762 478V546A46 46 0 0 1 716 592H308A46 46 0 0 1 262 546V478A46 46 0 0 1 308 432Z" transform="translate(9 10.799999999999999) " fill="#000" stroke="#000" stroke-width="2" stroke-linejoin="round"/></mask><mask id="dk4b1-lo" maskUnits="userSpaceOnUse" x="0" y="0" width="1024" height="1024"><path d="M308 432H716A46 46 0 0 1 762 478V546A46 46 0 0 1 716 592H308A46 46 0 0 1 262 546V478A46 46 0 0 1 308 432Z" transform="" fill="#fff" stroke="#fff" stroke-width="2" stroke-linejoin="round"/><path d="M308 432H716A46 46 0 0 1 762 478V546A46 46 0 0 1 716 592H308A46 46 0 0 1 262 546V478A46 46 0 0 1 308 432Z" transform="translate(-9 -10.799999999999999) " fill="#000" stroke="#000" stroke-width="2" stroke-linejoin="round"/></mask><mask id="dk4b1-in" maskUnits="userSpaceOnUse" x="0" y="0" width="1024" height="1024"><path d="M308 432H716A46 46 0 0 1 762 478V546A46 46 0 0 1 716 592H308A46 46 0 0 1 262 546V478A46 46 0 0 1 308 432Z" transform="" fill="#fff" stroke="#fff" stroke-width="2" stroke-linejoin="round"/></mask><filter id="dk4b1-hsoft" x="-50%" y="-50%" width="200%" height="200%" color-interpolation-filters="sRGB"><feGaussianBlur stdDeviation="2.25"/></filter><mask id="dk4b2-hl" maskUnits="userSpaceOnUse" x="0" y="0" width="1024" height="1024"><path d="M308 628H716A46 46 0 0 1 762 674V742A46 46 0 0 1 716 788H308A46 46 0 0 1 262 742V674A46 46 0 0 1 308 628Z" transform="" fill="#fff" stroke="#fff" stroke-width="2" stroke-linejoin="round"/><path d="M308 628H716A46 46 0 0 1 762 674V742A46 46 0 0 1 716 788H308A46 46 0 0 1 262 742V674A46 46 0 0 1 308 628Z" transform="translate(9 10.799999999999999) " fill="#000" stroke="#000" stroke-width="2" stroke-linejoin="round"/></mask><mask id="dk4b2-lo" maskUnits="userSpaceOnUse" x="0" y="0" width="1024" height="1024"><path d="M308 628H716A46 46 0 0 1 762 674V742A46 46 0 0 1 716 788H308A46 46 0 0 1 262 742V674A46 46 0 0 1 308 628Z" transform="" fill="#fff" stroke="#fff" stroke-width="2" stroke-linejoin="round"/><path d="M308 628H716A46 46 0 0 1 762 674V742A46 46 0 0 1 716 788H308A46 46 0 0 1 262 742V674A46 46 0 0 1 308 628Z" transform="translate(-9 -10.799999999999999) " fill="#000" stroke="#000" stroke-width="2" stroke-linejoin="round"/></mask><mask id="dk4b2-in" maskUnits="userSpaceOnUse" x="0" y="0" width="1024" height="1024"><path d="M308 628H716A46 46 0 0 1 762 674V742A46 46 0 0 1 716 788H308A46 46 0 0 1 262 742V674A46 46 0 0 1 308 628Z" transform="" fill="#fff" stroke="#fff" stroke-width="2" stroke-linejoin="round"/></mask><filter id="dk4b2-hsoft" x="-50%" y="-50%" width="200%" height="200%" color-interpolation-filters="sRGB"><feGaussianBlur stdDeviation="2.25"/></filter><filter id="dk4b-sh" x="-50%" y="-50%" width="200%" height="200%" color-interpolation-filters="sRGB"><feGaussianBlur stdDeviation="18"/></filter><linearGradient id="dk4b0-w" x1="0.1" y1="0.05" x2="0.9" y2="0.95"><stop offset="0" stop-color="#ffffff"/><stop offset="0.6" stop-color="#fafbfd"/><stop offset="1" stop-color="#eef1f6"/></linearGradient><linearGradient id="dk4b1-w" x1="0.1" y1="0.05" x2="0.9" y2="0.95"><stop offset="0" stop-color="#ffffff"/><stop offset="0.6" stop-color="#fafbfd"/><stop offset="1" stop-color="#eef1f6"/></linearGradient><linearGradient id="dk4b2-w" x1="0.1" y1="0.05" x2="0.9" y2="0.95"><stop offset="0" stop-color="#ffffff"/><stop offset="0.6" stop-color="#fafbfd"/><stop offset="1" stop-color="#eef1f6"/></linearGradient></defs><g id="dock-size" transform="translate(512 512) scale(1.12) translate(-512 -512)">
<g id="plate"><rect x="82" y="82" width="860" height="860" rx="202" fill="url(#dk4b-pl)"/><rect x="82" y="82" width="860" height="860" rx="202" fill="url(#dk4b-plh)"/></g><g id="ambient-shadow" clip-path="url(#dk4b-clip)"><ellipse cx="520" cy="660" rx="300" ry="220" fill="#6b3a00" opacity="0.3" filter="url(#dk4b-amb)"/></g><g opacity="0.4" filter="url(#dk4b0-sh)"><path d="M308 236H716A46 46 0 0 1 762 282V350A46 46 0 0 1 716 396H308A46 46 0 0 1 262 350V282A46 46 0 0 1 308 236Z" transform="translate(12 28) " fill="#6b3a00" stroke="#6b3a00" stroke-width="2" stroke-linejoin="round"/></g><path d="M308 236H716A46 46 0 0 1 762 282V350A46 46 0 0 1 716 396H308A46 46 0 0 1 262 350V282A46 46 0 0 1 308 236Z" transform="translate(0 14) " fill="#e2c79a" stroke="#e2c79a" stroke-width="2" stroke-linejoin="round"/><path d="M308 236H716A46 46 0 0 1 762 282V350A46 46 0 0 1 716 396H308A46 46 0 0 1 262 350V282A46 46 0 0 1 308 236Z" transform="" fill="url(#dk4b0-w)" stroke="url(#dk4b0-w)" stroke-width="2" stroke-linejoin="round"/><g filter="url(#dk4b0-hsoft)"><rect x="0" y="0" width="1024" height="1024" fill="#a88a5a" opacity="0.25" mask="url(#dk4b0-lo)"/><rect x="0" y="0" width="1024" height="1024" fill="#fff" opacity="1" mask="url(#dk4b0-hl)"/></g><rect x="316" y="306" width="170" height="20" rx="10" fill="#e6dcc8"/><circle cx="696" cy="316" r="18" fill="#2bd07f"/><g opacity="0.4" filter="url(#dk4b1-sh)"><path d="M308 432H716A46 46 0 0 1 762 478V546A46 46 0 0 1 716 592H308A46 46 0 0 1 262 546V478A46 46 0 0 1 308 432Z" transform="translate(12 28) " fill="#6b3a00" stroke="#6b3a00" stroke-width="2" stroke-linejoin="round"/></g><path d="M308 432H716A46 46 0 0 1 762 478V546A46 46 0 0 1 716 592H308A46 46 0 0 1 262 546V478A46 46 0 0 1 308 432Z" transform="translate(0 14) " fill="#e2c79a" stroke="#e2c79a" stroke-width="2" stroke-linejoin="round"/><path d="M308 432H716A46 46 0 0 1 762 478V546A46 46 0 0 1 716 592H308A46 46 0 0 1 262 546V478A46 46 0 0 1 308 432Z" transform="" fill="url(#dk4b1-w)" stroke="url(#dk4b1-w)" stroke-width="2" stroke-linejoin="round"/><g filter="url(#dk4b1-hsoft)"><rect x="0" y="0" width="1024" height="1024" fill="#a88a5a" opacity="0.25" mask="url(#dk4b1-lo)"/><rect x="0" y="0" width="1024" height="1024" fill="#fff" opacity="1" mask="url(#dk4b1-hl)"/></g><rect x="316" y="502" width="170" height="20" rx="10" fill="#e6dcc8"/><circle cx="696" cy="512" r="18" fill="#ff5a4e"/><g opacity="0.4" filter="url(#dk4b2-sh)"><path d="M308 628H716A46 46 0 0 1 762 674V742A46 46 0 0 1 716 788H308A46 46 0 0 1 262 742V674A46 46 0 0 1 308 628Z" transform="translate(12 28) " fill="#6b3a00" stroke="#6b3a00" stroke-width="2" stroke-linejoin="round"/></g><path d="M308 628H716A46 46 0 0 1 762 674V742A46 46 0 0 1 716 788H308A46 46 0 0 1 262 742V674A46 46 0 0 1 308 628Z" transform="translate(0 14) " fill="#e2c79a" stroke="#e2c79a" stroke-width="2" stroke-linejoin="round"/><path d="M308 628H716A46 46 0 0 1 762 674V742A46 46 0 0 1 716 788H308A46 46 0 0 1 262 742V674A46 46 0 0 1 308 628Z" transform="" fill="url(#dk4b2-w)" stroke="url(#dk4b2-w)" stroke-width="2" stroke-linejoin="round"/><g filter="url(#dk4b2-hsoft)"><rect x="0" y="0" width="1024" height="1024" fill="#a88a5a" opacity="0.25" mask="url(#dk4b2-lo)"/><rect x="0" y="0" width="1024" height="1024" fill="#fff" opacity="1" mask="url(#dk4b2-hl)"/></g><rect x="316" y="698" width="170" height="20" rx="10" fill="#e6dcc8"/><circle cx="696" cy="708" r="18" fill="#2bd07f"/><g id="plate-rim" clip-path="url(#dk4b-clip)"><rect x="82" y="82" width="860" height="860" rx="202" fill="none" stroke="url(#dk4b-rim)" stroke-width="8"/></g>
</g></svg>
