<svg xmlns="http://www.w3.org/2000/svg" viewBox="0 0 1024 1024" width="1024" height="1024">
<defs><linearGradient id="mpc-pl" x1="0.2" y1="0" x2="0.8" y2="1"><stop offset="0" stop-color="#f3f2ea"/><stop offset="1" stop-color="#e1e0d4"/></linearGradient><radialGradient id="mpc-plh" cx="0.26" cy="0.12" r="0.8"><stop offset="0" stop-color="#fff" stop-opacity="0.2"/><stop offset="0.55" stop-color="#fff" stop-opacity="0.05"/><stop offset="1" stop-color="#fff" stop-opacity="0"/></radialGradient><linearGradient id="mpc-rim" x1="0" y1="0" x2="0" y2="1"><stop offset="0" stop-color="#fff" stop-opacity="0.42"/><stop offset="0.1" stop-color="#fff" stop-opacity="0"/><stop offset="0.86" stop-color="#3a3a30" stop-opacity="0"/><stop offset="1" stop-color="#3a3a30" stop-opacity="0.35"/></linearGradient><clipPath id="mpc-clip"><rect x="82" y="82" width="860" height="860" rx="202"/></clipPath><filter id="mpc-amb" x="-50%" y="-50%" width="200%" height="200%" color-interpolation-filters="sRGB"><feGaussianBlur stdDeviation="56"/></filter><filter id="mpc-sh" x="-50%" y="-50%" width="200%" height="200%" color-interpolation-filters="sRGB"><feGaussianBlur stdDeviation="10"/></filter><filter id="mpc-soft" x="-50%" y="-50%" width="200%" height="200%" color-interpolation-filters="sRGB"><feGaussianBlur stdDeviation="3"/></filter><linearGradient id="mpc-beam" x1="0.5" y1="1" x2="0.5" y2="0"><stop offset="0" stop-color="#2f7bff" stop-opacity="0.55"/><stop offset="1" stop-color="#2f7bff" stop-opacity="0"/></linearGradient><radialGradient id="mpc-dot" cx="0.38" cy="0.32" r="0.75"><stop offset="0" stop-color="#6aa8ff"/><stop offset="0.7" stop-color="#2f6fff"/><stop offset="1" stop-color="#1f55e0"/></radialGradient></defs><g id="dock-size" transform="translate(512 512) scale(1.12) translate(-512 -512)">
<g id="plate"><rect x="82" y="82" width="860" height="860" rx="202" fill="url(#mpc-pl)"/><rect x="82" y="82" width="860" height="860" rx="202" fill="url(#mpc-plh)"/></g><g id="map" clip-path="url(#mpc-clip)"><path d="M82 82H420C400 200 300 300 82 330Z" fill="#b9e3a0"/><path d="M600 942C640 820 760 700 942 660V942Z" fill="#9fd1ff"/><g fill="none" stroke-linecap="round"><path d="M82 560C300 540 700 520 942 470" stroke="#d6d4c6" stroke-width="64"/><path d="M82 560C300 540 700 520 942 470" stroke="#fff" stroke-width="50"/><path d="M380 942C420 700 560 400 640 82" stroke="#e7c34a" stroke-width="62"/><path d="M380 942C420 700 560 400 640 82" stroke="#ffd966" stroke-width="48"/><path d="M82 760L400 700M720 82L760 330" stroke="#fff" stroke-width="28"/></g></g><g id="object-main"><circle cx="512" cy="540" r="120" fill="#2f7bff" opacity="0.16"/><circle cx="515" cy="550" r="64" fill="#1b2a50" opacity="0.35" filter="url(#mpc-sh)"/><circle cx="512" cy="540" r="64" fill="#fff"/><circle cx="512" cy="540" r="46" fill="url(#mpc-dot)"/></g><g id="plate-rim" clip-path="url(#mpc-clip)"><rect x="82" y="82" width="860" height="860" rx="202" fill="none" stroke="url(#mpc-rim)" stroke-width="8"/></g>
</g></svg>
